<mxfile host="app.diagrams.net" modified="2023-10-05T05:12:17.140Z" agent="Mozilla/5.0 (Windows NT 10.0; Win64; x64) AppleWebKit/537.36 (KHTML, like Gecko) Chrome/117.0.0.0 Safari/537.36" etag="Wf4cHkAb2-Esh_ipg9bq" version="22.0.2" type="github">
  <diagram name="Page-1" id="qmxID-w1d-zOfBggRgft">
    <mxGraphModel dx="1259" dy="702" grid="1" gridSize="10" guides="1" tooltips="1" connect="1" arrows="1" fold="1" page="1" pageScale="1" pageWidth="850" pageHeight="1100" math="0" shadow="0">
      <root>
        <mxCell id="0" />
        <mxCell id="1" parent="0" />
        <mxCell id="3MyWGSoG9oj4a2x2vSd9-4" style="edgeStyle=orthogonalEdgeStyle;rounded=0;orthogonalLoop=1;jettySize=auto;html=1;entryX=0;entryY=0.5;entryDx=0;entryDy=0;" edge="1" parent="1" source="3MyWGSoG9oj4a2x2vSd9-1" target="3MyWGSoG9oj4a2x2vSd9-2">
          <mxGeometry relative="1" as="geometry" />
        </mxCell>
        <mxCell id="3MyWGSoG9oj4a2x2vSd9-11" value="Transition[guard]/action" style="edgeLabel;html=1;align=center;verticalAlign=middle;resizable=0;points=[];" vertex="1" connectable="0" parent="3MyWGSoG9oj4a2x2vSd9-4">
          <mxGeometry x="-0.1952" y="1" relative="1" as="geometry">
            <mxPoint y="-9" as="offset" />
          </mxGeometry>
        </mxCell>
        <mxCell id="3MyWGSoG9oj4a2x2vSd9-1" value="Proposal" style="rounded=1;whiteSpace=wrap;html=1;" vertex="1" parent="1">
          <mxGeometry x="190" y="300" width="120" height="60" as="geometry" />
        </mxCell>
        <mxCell id="3MyWGSoG9oj4a2x2vSd9-2" value="Prepared" style="rounded=1;whiteSpace=wrap;html=1;" vertex="1" parent="1">
          <mxGeometry x="580" y="300" width="120" height="60" as="geometry" />
        </mxCell>
        <mxCell id="3MyWGSoG9oj4a2x2vSd9-5" value="" style="curved=1;endArrow=classic;html=1;rounded=0;entryX=0.25;entryY=0;entryDx=0;entryDy=0;exitX=0.81;exitY=-0.008;exitDx=0;exitDy=0;exitPerimeter=0;" edge="1" parent="1" target="3MyWGSoG9oj4a2x2vSd9-1">
          <mxGeometry width="50" height="50" relative="1" as="geometry">
            <mxPoint x="269.20000000000005" y="299.52" as="sourcePoint" />
            <mxPoint x="211.96000000000004" y="300" as="targetPoint" />
            <Array as="points">
              <mxPoint x="280" y="280" />
              <mxPoint x="280" y="260" />
              <mxPoint x="262" y="240" />
              <mxPoint x="232" y="240" />
              <mxPoint x="210" y="260" />
              <mxPoint x="210" y="280" />
            </Array>
          </mxGeometry>
        </mxCell>
        <mxCell id="3MyWGSoG9oj4a2x2vSd9-10" value="Test&lt;br&gt;" style="edgeLabel;html=1;align=center;verticalAlign=middle;resizable=0;points=[];" vertex="1" connectable="0" parent="3MyWGSoG9oj4a2x2vSd9-5">
          <mxGeometry x="0.0162" y="3" relative="1" as="geometry">
            <mxPoint y="-11" as="offset" />
          </mxGeometry>
        </mxCell>
        <mxCell id="3MyWGSoG9oj4a2x2vSd9-9" style="edgeStyle=orthogonalEdgeStyle;rounded=0;orthogonalLoop=1;jettySize=auto;html=1;entryX=0;entryY=0.5;entryDx=0;entryDy=0;" edge="1" parent="1" source="3MyWGSoG9oj4a2x2vSd9-8" target="3MyWGSoG9oj4a2x2vSd9-1">
          <mxGeometry relative="1" as="geometry" />
        </mxCell>
        <mxCell id="3MyWGSoG9oj4a2x2vSd9-8" value="" style="ellipse;html=1;shape=endState;fillColor=#000000;strokeColor=none;" vertex="1" parent="1">
          <mxGeometry x="70" y="315" width="30" height="30" as="geometry" />
        </mxCell>
        <mxCell id="3MyWGSoG9oj4a2x2vSd9-20" style="edgeStyle=orthogonalEdgeStyle;rounded=0;orthogonalLoop=1;jettySize=auto;html=1;entryX=0.5;entryY=0;entryDx=0;entryDy=0;" edge="1" parent="1" source="3MyWGSoG9oj4a2x2vSd9-14" target="3MyWGSoG9oj4a2x2vSd9-15">
          <mxGeometry relative="1" as="geometry" />
        </mxCell>
        <mxCell id="3MyWGSoG9oj4a2x2vSd9-21" value="onButtonpushed[safety cover closed] / run start-up" style="edgeLabel;html=1;align=center;verticalAlign=middle;resizable=0;points=[];" vertex="1" connectable="0" parent="3MyWGSoG9oj4a2x2vSd9-20">
          <mxGeometry x="-0.1322" y="2" relative="1" as="geometry">
            <mxPoint as="offset" />
          </mxGeometry>
        </mxCell>
        <mxCell id="3MyWGSoG9oj4a2x2vSd9-14" value="Off" style="rounded=1;whiteSpace=wrap;html=1;" vertex="1" parent="1">
          <mxGeometry x="190" y="580" width="120" height="60" as="geometry" />
        </mxCell>
        <mxCell id="3MyWGSoG9oj4a2x2vSd9-15" value="On" style="rounded=1;whiteSpace=wrap;html=1;" vertex="1" parent="1">
          <mxGeometry x="190" y="740" width="120" height="60" as="geometry" />
        </mxCell>
        <mxCell id="3MyWGSoG9oj4a2x2vSd9-19" style="edgeStyle=orthogonalEdgeStyle;rounded=0;orthogonalLoop=1;jettySize=auto;html=1;entryX=0;entryY=0.5;entryDx=0;entryDy=0;" edge="1" parent="1" source="3MyWGSoG9oj4a2x2vSd9-18" target="3MyWGSoG9oj4a2x2vSd9-14">
          <mxGeometry relative="1" as="geometry" />
        </mxCell>
        <mxCell id="3MyWGSoG9oj4a2x2vSd9-18" value="" style="ellipse;html=1;shape=endState;fillColor=#000000;strokeColor=none;" vertex="1" parent="1">
          <mxGeometry x="70" y="595" width="30" height="30" as="geometry" />
        </mxCell>
        <mxCell id="3MyWGSoG9oj4a2x2vSd9-24" value="&lt;b&gt;&lt;font style=&quot;font-size: 14px;&quot;&gt;EXAMPLE&lt;/font&gt;&lt;/b&gt;" style="text;html=1;strokeColor=none;fillColor=none;align=center;verticalAlign=middle;whiteSpace=wrap;rounded=0;" vertex="1" parent="1">
          <mxGeometry x="87" y="535" width="60" height="30" as="geometry" />
        </mxCell>
        <mxCell id="3MyWGSoG9oj4a2x2vSd9-25" value="" style="curved=1;endArrow=classic;html=1;rounded=0;exitX=1;exitY=0.5;exitDx=0;exitDy=0;" edge="1" parent="1" source="3MyWGSoG9oj4a2x2vSd9-15">
          <mxGeometry width="50" height="50" relative="1" as="geometry">
            <mxPoint x="320" y="740" as="sourcePoint" />
            <mxPoint x="310" y="610" as="targetPoint" />
            <Array as="points">
              <mxPoint x="420" y="760" />
              <mxPoint x="500" y="680" />
              <mxPoint x="400" y="610" />
            </Array>
          </mxGeometry>
        </mxCell>
        <mxCell id="3MyWGSoG9oj4a2x2vSd9-26" value="offButtonpushed" style="edgeLabel;html=1;align=center;verticalAlign=middle;resizable=0;points=[];" vertex="1" connectable="0" parent="3MyWGSoG9oj4a2x2vSd9-25">
          <mxGeometry x="-0.0709" y="9" relative="1" as="geometry">
            <mxPoint as="offset" />
          </mxGeometry>
        </mxCell>
      </root>
    </mxGraphModel>
  </diagram>
</mxfile>
